<?xml version="1.0" encoding="utf-8"?>
<!-- Designed by Vexels.com - 2019 All Rights Reserved - https://vexels.com/terms-and-conditions/  -->
<svg version="1.1" id="Capa_1" xmlns="http://www.w3.org/2000/svg" xmlns:xlink="http://www.w3.org/1999/xlink" x="0px" y="0px"
	 viewBox="0 0 1200 1200" enable-background="new 0 0 1200 1200" xml:space="preserve">
<path fill="#26303D" d="M864.9,308.567h66.044c13.547,0,24.53-10.983,24.53-24.53c0-13.547-10.983-24.53-24.53-24.53h-93.39
	c-1.993-4.027-3.738-7.779-5.129-11.159c-27.529-66.896-0.959-88.913,11.695-95.281c11.541,13.907,28.949,22.77,48.434,22.77
	c34.748,0,62.916-28.17,62.916-62.919C955.471,78.17,927.302,50,892.554,50c-15.747,0-30.107,5.824-41.142,15.385
	c-34.271,1.689-125.325,20.46-102.995,174.656c0.94,6.503,2.064,12.99,3.321,19.466H448.261c1.257-6.476,2.381-12.964,3.321-19.466
	c22.33-154.195-68.723-172.966-102.995-174.656C337.552,55.824,323.193,50,307.446,50c-34.748,0-62.919,28.17-62.919,62.918
	c0,34.749,28.171,62.919,62.919,62.919c19.485,0,36.893-8.863,48.434-22.77c12.654,6.368,39.224,28.384,11.693,95.281
	c-1.391,3.38-3.135,7.132-5.126,11.159h-93.387c-13.55,0-24.53,10.983-24.53,24.53c0,13.547,10.98,24.53,24.53,24.53H335.1
	c-76.437,130.786-233.118,388.501-76.461,586.968c15.622,19.793,32.736,37.974,51.106,54.517
	c39.342,35.432,83.782,62.274,130.828,80.718c-2.47,6.789-3.811,13.834-3.811,21.069c0,54.214,73.085,98.161,163.237,98.161
	c90.155,0,163.239-43.948,163.239-98.161c0-7.235-1.341-14.279-3.811-21.069c47.046-18.444,91.485-45.286,130.828-80.718
	c18.369-16.544,35.484-34.724,51.106-54.517C1098.017,697.067,941.337,439.352,864.9,308.567z M683.464,308.567v463.922
	c-10.409-7.544-21.864-13.734-34.13-18.265c0-154.154,0-354.196,0-445.658H683.464z M639.197,308.567v442.379
	c-10.899-3.116-22.327-4.966-34.127-5.38c0-152.213,0-347.06,0-436.999H639.197z M594.933,308.567v436.999
	c-11.803,0.414-23.228,2.264-34.13,5.38c0-153.423,0-351.498,0-442.379H594.933z M550.666,308.567v445.657
	c-12.266,4.53-23.718,10.721-34.13,18.265c0-157.973,0-369.231,0-463.922H550.666z M361.543,788.966
	c-92.79-160.225,25.745-316.669,74.52-480.399H506.4v472c-27.102,23.667-45.144,57.418-48.282,95.417
	C417.678,855.841,383.681,827.193,361.543,788.966z M838.457,788.966c-22.16,38.262-56.14,66.926-96.57,87.071
	c-3.128-38.021-21.169-71.792-48.287-95.469c0-159.538,0-375.868,0-472.001h70.337C812.709,472.297,931.247,628.741,838.457,788.966
	z"/>
</svg>
